{"glyphs":{"0":{"ha":861,"x_min":0,"x_max":0,"o":"m 431 -14 b 56 521 204 -14 56 225 b 431 1056 56 817 218 1056 b 806 521 643 1056 806 817 b 431 -14 806 225 657 -14 m 431 1039 b 215 521 258 1039 215 774 b 431 3 215 268 244 3 b 646 521 617 3 646 268 b 431 1039 646 774 603 1039 "},"1":{"ha":604,"x_min":0,"x_max":0,"o":"m 250 19 l 250 1022 l 93 1022 l 93 1042 l 382 1042 l 382 19 l 535 19 l 535 0 l 69 0 l 69 19 "},"2":{"ha":764,"x_min":0,"x_max":0,"o":"m 56 0 l 56 90 l 360 386 b 547 764 476 501 547 633 b 329 1019 547 922 479 1019 b 94 767 183 1019 94 907 b 165 808 108 790 132 808 b 247 731 206 808 247 779 b 160 642 247 675 208 642 b 71 763 111 642 71 676 b 382 1056 71 925 178 1056 b 686 792 578 1056 686 931 b 514 504 686 653 589 578 l 122 125 l 696 125 l 696 229 l 715 229 l 715 0 "},"3":{"ha":724,"x_min":0,"x_max":0,"o":"m 668 278 b 321 -14 668 97 517 -14 b 35 189 124 -14 35 89 b 118 279 35 246 69 279 b 193 201 160 279 193 251 b 114 125 193 157 154 125 b 68 149 89 125 74 138 b 299 13 74 90 150 13 b 528 278 464 13 528 147 b 254 554 528 381 489 554 l 254 572 b 486 821 475 572 486 732 b 319 1029 486 924 429 1029 b 110 908 214 1029 131 969 b 156 929 118 921 135 929 b 235 853 196 929 235 901 b 156 775 235 797 190 775 b 76 861 114 775 76 804 b 335 1054 76 961 193 1054 b 626 821 489 1054 626 974 b 356 564 626 699 586 588 b 668 278 606 538 668 414 "},"4":{"ha":826,"x_min":0,"x_max":0,"o":"m 764 0 l 396 0 l 396 19 l 528 19 l 528 289 l 49 289 l 549 1042 l 660 1042 l 660 308 l 813 308 l 813 289 l 660 289 l 660 19 l 764 19 m 528 308 l 528 974 l 85 308 "},"5":{"ha":694,"x_min":0,"x_max":0,"o":"m 75 132 b 286 7 89 81 169 7 b 507 319 465 7 507 189 b 319 625 507 478 443 625 b 119 524 210 625 140 561 l 93 524 l 93 1042 l 585 1042 l 585 1118 l 604 1118 l 604 917 l 113 917 l 113 542 b 350 653 144 592 225 653 b 653 319 532 653 653 528 b 300 -14 653 139 510 -14 b 42 179 158 -14 42 79 b 121 265 42 236 79 265 b 200 188 156 265 200 243 b 121 111 200 139 161 111 b 75 132 99 111 83 122 "},"6":{"ha":778,"x_min":0,"x_max":0,"o":"m 736 347 b 408 -14 736 139 618 -14 b 69 431 199 -14 69 139 b 632 1056 69 768 322 1056 l 632 1039 b 214 532 403 1039 231 786 b 432 681 243 621 308 681 b 736 347 572 681 736 583 m 597 347 b 401 651 597 533 525 651 b 210 428 288 651 221 560 l 208 389 b 413 6 208 203 261 6 b 597 347 564 6 597 189 "},"7":{"ha":701,"x_min":0,"x_max":0,"o":"m 233 106 b 408 511 233 215 331 360 b 604 910 463 615 547 789 l 75 910 l 75 806 l 56 806 l 56 1042 l 688 1042 b 428 510 688 1042 524 703 b 344 272 364 379 344 333 b 414 81 344 171 414 150 b 325 -14 414 29 386 -14 b 233 106 271 -14 233 15 "},"8":{"ha":764,"x_min":0,"x_max":0,"o":"m 56 264 b 307 536 56 411 135 514 b 83 778 160 557 83 646 b 382 1056 83 931 186 1056 b 681 778 578 1056 681 931 b 457 536 681 646 604 557 b 708 264 629 514 708 411 b 382 -14 708 97 606 -14 b 56 264 158 -14 56 97 m 222 778 b 382 544 222 661 258 544 b 542 778 506 544 542 661 b 382 1036 542 894 506 1036 b 222 778 258 1036 222 894 m 194 264 b 382 6 194 133 244 6 b 569 264 519 6 569 133 b 382 525 569 394 519 525 b 194 264 244 525 194 394 "},"9":{"ha":778,"x_min":0,"x_max":0,"o":"m 708 611 b 146 -14 708 274 456 -14 l 146 3 b 564 510 375 3 547 256 b 346 361 535 421 469 361 b 42 694 206 361 42 458 b 369 1056 42 903 160 1056 b 708 611 579 1056 708 903 m 181 694 b 376 390 181 508 253 390 b 568 614 490 390 557 482 l 569 653 b 365 1036 569 839 517 1036 b 181 694 214 1036 181 853 "}," ":{"ha":347,"x_min":0,"x_max":0,"o":""},"!":{"ha":444,"x_min":0,"x_max":0,"o":"m 303 915 b 231 289 288 671 231 497 l 211 289 b 139 915 211 497 154 671 l 139 942 b 221 1053 139 1006 156 1053 b 304 942 286 1053 304 1006 b 303 915 304 933 303 925 m 139 69 b 222 153 139 115 176 153 b 306 69 268 153 306 115 b 222 -14 306 24 268 -14 b 139 69 176 -14 139 24 "},"'":{"ha":278,"x_min":0,"x_max":0,"o":"m 207 946 b 149 678 192 842 149 831 l 129 678 b 71 946 129 831 86 842 b 69 971 69 956 69 963 b 139 1056 69 1025 99 1056 b 208 971 179 1056 208 1025 b 207 946 208 963 208 956 "},"\"":{"ha":514,"x_min":0,"x_max":0,"o":"m 443 946 b 385 678 428 842 385 831 l 365 678 b 307 946 365 831 322 842 b 306 971 306 956 306 963 b 375 1056 306 1025 335 1056 b 444 971 415 1056 444 1025 b 443 946 444 963 444 956 m 207 946 b 149 678 192 842 149 831 l 129 678 b 71 946 129 831 86 842 b 69 971 69 956 69 963 b 139 1056 69 1025 99 1056 b 208 971 179 1056 208 1025 b 207 946 208 963 208 956 "},"#":{"ha":875,"x_min":0,"x_max":0,"o":"m 264 361 l 308 701 l 83 701 l 83 721 l 311 721 l 354 1049 l 374 1049 l 331 721 l 583 721 l 626 1047 l 646 1049 l 603 721 l 833 721 l 833 701 l 600 701 l 556 361 l 792 361 l 792 342 l 553 342 l 507 -7 l 488 -8 l 533 342 l 281 342 l 235 -7 l 215 -7 l 261 342 l 42 342 l 42 361 m 536 361 l 581 701 l 328 701 l 283 361 "},"$":{"ha":771,"x_min":0,"x_max":0,"o":"m 651 878 b 453 1031 642 946 564 1017 l 453 608 b 715 292 585 550 715 476 b 453 -17 715 118 613 6 l 453 -111 l 431 -111 l 431 -19 b 390 -21 418 -21 404 -21 b 329 -18 369 -21 349 -19 l 329 -111 l 306 -111 l 306 -15 b 42 201 128 13 42 122 b 139 315 42 265 78 315 b 228 224 181 315 228 285 b 135 133 228 168 182 133 b 75 158 106 133 85 147 b 306 6 101 107 161 26 l 306 499 b 83 785 189 553 83 625 b 306 1043 83 918 181 1011 l 306 1153 l 329 1153 l 329 1049 b 404 1056 354 1053 379 1056 b 431 1054 413 1056 422 1056 l 431 1153 l 453 1153 l 453 1053 b 688 840 586 1033 688 940 b 590 726 688 776 651 726 b 501 818 549 726 501 757 b 594 908 501 874 547 908 b 651 878 619 908 644 892 m 413 1033 b 329 1024 382 1033 354 1029 l 329 663 b 431 618 361 647 396 633 l 431 1033 b 413 1033 425 1033 418 1033 m 181 840 b 306 674 181 760 233 713 l 306 1015 b 181 840 225 986 181 919 m 382 0 b 431 4 399 0 415 1 l 431 443 b 329 488 397 458 364 472 l 329 3 b 382 0 346 1 364 0 m 618 229 b 453 433 618 335 544 389 l 453 8 b 618 229 557 33 618 115 "},"%":{"ha":1389,"x_min":0,"x_max":0,"o":"m 49 750 b 326 1056 49 949 169 1056 b 604 750 483 1056 604 949 b 326 444 604 551 456 444 b 49 750 169 444 49 551 m 1063 1042 l 350 0 l 326 0 l 1039 1042 m 201 750 b 326 464 201 608 224 464 b 451 750 429 464 451 608 b 326 1036 451 892 429 1036 b 201 750 224 1036 201 892 m 785 292 b 1063 597 785 490 906 597 b 1340 292 1219 597 1340 490 b 1063 -14 1340 93 1192 -14 b 785 292 906 -14 785 93 m 938 292 b 1063 6 938 150 960 6 b 1188 292 1165 6 1188 150 b 1063 578 1188 433 1165 578 b 938 292 960 578 938 433 "},"&":{"ha":1117,"x_min":0,"x_max":0,"o":"m 1089 639 l 1089 619 l 957 619 b 775 193 938 468 874 313 l 890 19 l 1068 19 l 1068 0 l 743 0 l 678 97 b 374 -14 592 29 489 -14 b 56 250 189 -14 56 79 b 368 556 56 419 217 479 l 283 681 b 219 851 247 733 219 803 b 499 1056 219 976 338 1056 b 757 868 647 1056 757 979 b 503 601 757 722 633 665 l 763 211 b 938 619 857 324 921 474 l 756 619 l 756 639 m 489 622 b 626 875 568 676 626 742 b 499 1042 626 940 603 1042 b 356 889 392 1042 356 963 b 450 681 356 840 390 769 m 208 264 b 429 32 208 136 299 32 b 664 117 514 32 594 64 l 381 536 b 208 264 285 478 208 401 "},"(":{"ha":503,"x_min":0,"x_max":0,"o":"m 476 -236 b 90 451 250 -139 90 128 b 476 1111 90 775 250 1014 l 485 1094 b 222 451 313 983 222 718 b 485 -219 222 185 313 -108 "},")":{"ha":503,"x_min":0,"x_max":0,"o":"m 26 1111 b 413 424 253 1014 413 747 b 26 -236 413 100 253 -139 l 18 -219 b 281 424 190 -108 281 157 b 18 1094 281 690 190 983 "},"*":{"ha":882,"x_min":0,"x_max":0,"o":"m 371 454 b 429 706 386 554 426 568 b 242 531 313 635 321 593 b 221 517 233 524 228 521 b 113 535 174 489 132 499 b 151 636 92 569 104 610 b 174 649 158 640 164 644 b 421 724 268 685 300 657 b 175 799 301 789 268 761 b 153 810 165 801 160 806 b 114 913 106 836 93 876 b 222 929 133 947 175 957 b 243 917 229 925 235 922 b 432 740 322 853 314 811 b 374 990 428 876 389 890 b 372 1015 372 1000 372 1007 b 442 1100 372 1069 401 1100 b 511 1015 482 1100 511 1069 b 510 990 511 1007 511 1000 b 451 739 494 890 454 876 b 639 914 568 810 560 851 b 660 928 647 921 653 924 b 768 910 707 956 749 946 b 729 808 789 875 776 835 b 707 796 722 804 717 800 b 460 721 613 760 581 788 b 706 646 579 656 613 683 b 728 635 715 643 721 639 b 767 532 775 608 788 568 b 658 515 747 497 706 488 b 638 528 651 519 646 522 b 449 704 558 592 567 633 b 507 454 453 568 492 554 b 508 429 508 444 508 438 b 439 344 508 375 479 344 b 369 429 399 344 369 375 b 371 454 369 438 369 444 "},"+":{"ha":736,"x_min":0,"x_max":0,"o":"m 358 429 l 83 429 l 83 449 l 358 449 l 358 722 l 378 722 l 378 449 l 653 449 l 653 429 l 378 429 l 378 153 l 358 153 "},",":{"ha":299,"x_min":0,"x_max":0,"o":"m 56 68 b 149 150 56 114 96 150 b 246 6 203 150 246 107 b 53 -212 246 -92 178 -212 l 53 -193 b 224 36 153 -193 229 -100 b 135 -14 201 0 168 -14 b 56 68 83 -14 56 22 "},"-":{"ha":500,"x_min":0,"x_max":0,"o":"m 417 392 l 417 372 l 83 372 l 83 392 "},".":{"ha":278,"x_min":0,"x_max":0,"o":"m 56 69 b 139 153 56 115 93 153 b 222 69 185 153 222 115 b 139 -14 222 24 185 -14 b 56 69 93 -14 56 24 "},"/":{"ha":722,"x_min":0,"x_max":0,"o":"m 667 1083 l 75 -208 l 56 -208 l 647 1083 "},":":{"ha":275,"x_min":0,"x_max":0,"o":"m 56 653 b 139 736 56 699 93 736 b 222 653 185 736 222 699 b 139 569 222 607 185 569 b 56 653 93 569 56 607 m 56 69 b 139 153 56 115 93 153 b 222 69 185 153 222 115 b 139 -14 222 24 185 -14 b 56 69 93 -14 56 24 "},";":{"ha":299,"x_min":0,"x_max":0,"o":"m 56 653 b 139 736 56 699 93 736 b 222 653 185 736 222 699 b 139 569 222 607 185 569 b 56 653 93 569 56 607 m 56 68 b 149 150 56 114 96 150 b 246 6 203 150 246 107 b 53 -212 246 -92 178 -212 l 53 -193 b 224 36 153 -193 229 -100 b 135 -14 201 0 168 -14 b 56 68 83 -14 56 22 "},"<":{"ha":778,"x_min":0,"x_max":0,"o":"m 83 550 l 694 833 l 694 814 l 100 539 l 694 263 l 694 243 l 83 526 "},"=":{"ha":778,"x_min":0,"x_max":0,"o":"m 694 718 l 694 699 l 83 699 l 83 718 m 694 510 l 694 490 l 83 490 l 83 510 "},">":{"ha":778,"x_min":0,"x_max":0,"o":"m 694 526 l 83 243 l 83 263 l 678 539 l 83 814 l 83 833 l 694 550 "},"?":{"ha":764,"x_min":0,"x_max":0,"o":"m 333 485 b 554 778 482 522 554 649 b 358 1035 554 908 524 1035 b 117 868 228 1035 128 932 b 163 889 122 876 138 889 b 242 813 203 889 242 861 b 163 735 242 757 197 735 b 83 821 121 735 83 764 b 369 1056 83 935 214 1056 b 694 778 565 1056 694 944 b 353 472 694 618 549 485 l 353 290 l 333 290 l 333 485 m 263 69 b 346 153 263 115 300 153 b 429 69 392 153 429 115 b 346 -14 429 24 392 -14 b 263 69 300 -14 263 24 "},"@":{"ha":1403,"x_min":0,"x_max":0,"o":"m 1090 -89 b 582 -297 974 -225 808 -297 b 76 293 328 -297 76 -143 b 813 1097 76 728 406 1097 b 1326 557 1164 1097 1326 811 b 960 94 1326 335 1197 94 b 815 260 850 94 810 181 b 603 97 765 161 686 97 b 394 319 493 97 394 175 b 719 735 394 528 554 735 b 867 494 829 735 865 608 l 919 722 l 1044 722 l 944 292 b 986 118 940 274 879 118 b 1307 557 1169 118 1307 340 b 811 1078 1307 804 1154 1078 b 96 293 418 1078 96 718 b 582 -278 96 -128 338 -278 b 1076 -75 808 -278 954 -211 l 1090 -89 m 851 481 b 736 708 851 539 838 708 b 535 324 633 708 535 496 b 635 124 535 231 556 124 b 851 481 733 124 851 297 "},"A":{"ha":1021,"x_min":0,"x_max":0,"o":"m 149 19 l 515 1063 l 535 1063 l 896 19 l 1000 19 l 1000 0 l 597 0 l 597 19 l 743 19 l 643 331 l 281 331 l 172 19 l 333 19 l 333 0 l 28 0 l 28 19 m 286 349 l 638 349 l 468 872 "},"B":{"ha":875,"x_min":0,"x_max":0,"o":"m 28 0 l 28 19 l 153 19 l 153 1022 l 28 1022 l 28 1042 l 431 1042 b 778 785 640 1042 778 965 b 538 536 778 636 693 558 b 819 292 697 519 819 447 b 458 0 819 83 682 0 m 285 1022 l 285 544 l 431 544 b 639 771 536 544 639 606 b 431 1022 639 936 536 1022 m 285 525 l 285 19 l 444 19 b 667 292 564 19 667 126 b 444 525 667 457 564 525 "}}}
